<svg width="1256" height="514" viewBox="0 0 1256 514" fill="none" xmlns="http://www.w3.org/2000/svg">
<path opacity="0.1" d="M1.99997 153.587C32.2812 106.264 195.742 168.886 242.085 75.4711C339.581 -121.05 603.882 481.936 687.943 382.054C855.761 182.653 1655.94 539.967 1688.89 510.674M106.332 -7.40037C110.211 47.9006 151.757 153.014 286.917 131.059C455.866 103.615 593.116 -28.0095 733.228 87.7223C873.34 203.454 973.068 471.966 1108.04 380.2M9.51342 139.456C38.5374 97.0198 196.192 161.665 246.765 71.6532C347.664 -116.817 605.914 451.188 692.645 361.573C859.143 177.179 1625.97 530.263 1663.78 497.996M17.0272 125.326C44.7938 87.7758 196.643 154.445 251.446 67.8354C355.747 -112.583 607.947 420.44 697.347 341.093C862.526 171.704 1596 520.561 1638.66 485.319M24.5406 111.195C51.05 78.5317 197.094 147.224 256.126 64.0176C363.829 -108.35 609.98 389.692 702.049 320.612C865.908 166.23 1566.03 510.858 1613.55 472.641M32.0542 97.0642C57.3063 69.2883 197.545 140.004 260.806 60.2003C371.912 -104.116 612.012 358.945 706.75 300.132C869.291 160.756 1536.05 501.155 1588.43 459.963M39.5676 82.9332C63.5624 60.0442 197.996 132.783 265.486 56.3824C379.995 -99.8826 614.045 328.197 711.452 279.651C872.673 155.282 1506.08 491.452 1563.32 447.285M47.081 68.8022C69.8186 50.8001 198.446 125.562 270.166 52.5646C388.077 -95.6491 616.077 297.449 716.154 259.17C876.055 149.807 1476.11 481.749 1538.21 434.607M54.5948 54.6714C76.075 41.5561 198.897 118.342 274.846 48.7468C396.16 -91.4156 618.11 266.701 720.856 238.69C879.438 144.333 1446.14 472.046 1513.09 421.93M62.1082 40.5404C82.3312 32.312 199.348 111.121 279.527 44.9289C404.243 -87.1821 620.143 235.953 725.557 218.209C882.82 138.859 1416.16 462.343 1487.98 409.252M69.6217 26.4094C88.5873 23.0679 199.799 103.9 284.207 41.1111C412.325 -82.9487 622.175 205.205 730.259 197.729C886.203 133.385 1386.19 452.64 1462.86 396.574M77.1354 12.2786C94.8438 13.8239 200.25 96.6797 288.887 37.2933C420.408 -78.7151 624.208 174.457 734.961 177.248C889.585 127.91 1356.22 442.937 1437.75 383.896M84.6487 -1.85192C101.1 4.58029 200.7 89.4595 293.567 33.476C428.491 -74.4812 626.241 143.709 739.662 156.768C892.967 122.436 1326.24 433.235 1412.63 371.218M92.1624 -15.9828C107.356 -4.6637 201.151 82.2389 298.247 29.6582C436.574 -70.2476 628.273 112.961 744.364 136.287C896.35 116.962 1296.27 423.532 1387.52 358.54M98.236 -26.4567C112.172 -10.2507 200.162 78.6753 301.487 29.4974C443.216 -62.3571 628.866 85.8705 747.626 119.464C898.293 115.145 1264.86 417.486 1360.96 349.52M101.374 -29.4751C114.053 -8.38229 196.238 82.5671 301.792 36.7921C446.924 -47.0111 626.524 66.235 747.952 110.095C897.3 120.783 1230.51 418.896 1331.48 347.954M103.878 -30.8804C115.3 -4.90064 191.678 88.0722 301.462 45.6999C449.996 -30.052 623.546 48.2127 747.644 102.34C895.672 128.034 1195.53 421.918 1301.35 348.002M104.821 -28.3247C114.986 2.54192 185.559 97.5381 299.572 58.5687C451.509 -9.13188 619.009 34.1514 745.776 98.5465C892.484 139.247 1158.99 428.902 1269.67 352.011M105.146 -24.1964C114.053 11.5571 178.821 108.577 297.063 73.0101C452.403 13.3608 613.852 21.6626 743.288 96.325C888.678 152.032 1121.83 437.458 1237.36 357.592M105.45 -20.0157C113.1 20.6246 172.062 119.668 294.534 87.5039C453.276 35.9059 608.675 9.22624 740.78 94.156C884.851 164.869 1084.64 446.067 1205.04 363.226M105.747 -15.8176C112.139 29.7096 165.296 130.776 291.998 102.015C454.142 58.4685 603.491 -3.19268 738.266 92.0044C881.016 177.724 1047.45 454.693 1172.71 368.877M106.04 -11.6112C111.176 38.803 158.528 141.893 289.458 116.535C455.005 81.0393 598.305 -15.6032 735.748 89.8612C877.179 190.587 1010.26 463.327 1140.37 374.536" stroke="white" stroke-width="3"/>
</svg>
